<?xml version="1.0" encoding="UTF-8"?>
<svg version="1.1" xmlns="http://www.w3.org/2000/svg" width="900" height="600">
<path d="M0 0 C2.80447776 0.00467332 5.60781323 -0.00892232 8.41210938 -0.04101562 C32.95700439 -0.31807398 56.89294954 1.49347871 80.54602051 8.6197052 C83.12807656 9.37632455 85.68053401 10.00703454 88.31518555 10.54394531 C93.14392926 11.56410243 97.72463874 13.15226077 102.3659668 14.81347656 C103.67863525 15.27814331 103.67863525 15.27814331 105.01782227 15.75219727 C110.74362797 17.79894257 116.38848906 19.98273793 121.97143555 22.39550781 C124.45616816 23.45931921 126.96303634 24.42044304 129.4909668 25.37597656 C134.71314623 27.444666 139.56344817 30.1122385 144.47924805 32.81738281 C148.12532841 34.81415618 151.82130716 36.67148655 155.5534668 38.50097656 C155.5534668 39.16097656 155.5534668 39.82097656 155.5534668 40.50097656 C156.3372168 40.70722656 157.1209668 40.91347656 157.9284668 41.12597656 C170.53446939 45.90756375 181.28435503 55.37166707 191.69506836 63.73217773 C194.85859683 66.25433955 198.02776106 68.51364056 201.5534668 70.50097656 C202.03557617 69.92347656 202.51768555 69.34597656 203.0144043 68.75097656 C203.64604492 68.00847656 204.27768555 67.26597656 204.9284668 66.50097656 C205.55495117 65.75847656 206.18143555 65.01597656 206.8269043 64.25097656 C207.68155273 63.38472656 207.68155273 63.38472656 208.5534668 62.50097656 C209.2134668 62.50097656 209.8734668 62.50097656 210.5534668 62.50097656 C210.8215918 61.90285156 211.0897168 61.30472656 211.3659668 60.68847656 C212.55264086 58.50249803 213.64945792 57.08765062 215.5534668 55.50097656 C216.2134668 55.50097656 216.8734668 55.50097656 217.5534668 55.50097656 C217.7597168 54.94410156 217.9659668 54.38722656 218.1784668 53.81347656 C220.13029711 50.53085285 222.49577674 48.7942441 225.5534668 46.50097656 C226.2134668 46.50097656 226.8734668 46.50097656 227.5534668 46.50097656 C227.8834668 45.51097656 228.2134668 44.52097656 228.5534668 43.50097656 C230.75216369 41.8259206 232.92354514 40.30663998 235.2409668 38.81347656 C235.91289063 38.37430908 236.58481445 37.9351416 237.27709961 37.48266602 C247.28508564 31.00794437 257.5299211 25.08890112 268.5534668 20.50097656 C269.5228418 20.09234375 270.4922168 19.68371094 271.4909668 19.26269531 C297.51402244 8.7558866 325.34158733 5.07498786 353.0690918 2.29785156 C353.73198715 2.23140945 354.39488251 2.16496735 355.0778656 2.09651184 C356.41990845 1.96622189 357.76249446 1.84141884 359.10553932 1.72189903 C360.75024917 1.57346597 362.39408297 1.41501584 364.03691006 1.24702168 C375.09166618 0.23308463 386.14312996 0.36811153 397.234375 0.38745117 C399.51212564 0.38773365 401.78987637 0.38757413 404.06762695 0.38700867 C410.2174955 0.38672305 416.36734435 0.39258168 422.51720834 0.39958262 C428.95671757 0.4058554 435.39622732 0.40642306 441.83573914 0.40760803 C452.6331724 0.41035792 463.43059762 0.41659411 474.22802734 0.42553711 C485.34326136 0.43473369 496.45849341 0.44180351 507.57373047 0.44604492 C508.26031104 0.44630765 508.94689161 0.44657037 509.65427766 0.44684105 C513.09907986 0.44814621 516.54388207 0.44940989 519.9886843 0.45065296 C548.51028331 0.46099861 577.03187477 0.47866824 605.5534668 0.50097656 C605.40125912 1.9475272 605.24664947 3.39382524 605.09101868 4.8400116 C605.00517674 5.64544497 604.91933481 6.45087835 604.83089161 7.2807188 C604.53362063 9.65980734 604.03129013 11.83672269 603.28393555 14.11425781 C602.91377319 15.26414185 602.91377319 15.26414185 602.53613281 16.43725586 C602.14252563 17.61348511 602.14252563 17.61348511 601.7409668 18.81347656 C601.46889404 19.64596924 601.19682129 20.47846191 600.91650391 21.33618164 C600.37616187 22.9863462 599.83241428 24.63540035 599.28491211 26.28320312 C598.67632439 28.12846709 598.09223063 29.98178742 597.5144043 31.83691406 C592.71263595 47.07730926 585.5603026 61.89749886 577.58203125 75.71362305 C576.54553091 77.51476689 575.5298223 79.32632309 574.51831055 81.14160156 C573.8425293 82.34472656 573.16674805 83.54785156 572.4909668 84.75097656 C572.15258789 85.36199219 571.81420898 85.97300781 571.46557617 86.60253906 C569.76001602 89.62438259 568.12356551 92.16452319 565.5534668 94.50097656 C564.9347168 95.55285156 564.9347168 95.55285156 564.3034668 96.62597656 C562.20739981 100.06951518 559.75769216 103.1265251 557.26049805 106.28613281 C555.85331726 108.11192573 554.55288853 109.94154369 553.3034668 111.87597656 C551.80910121 114.11752495 550.44226056 115.6304762 548.5534668 117.50097656 C546.74534056 119.60710134 544.95723081 121.72874209 543.17456055 123.85644531 C542.63959961 124.39914063 542.10463867 124.94183594 541.5534668 125.50097656 C540.8934668 125.50097656 540.2334668 125.50097656 539.5534668 125.50097656 C539.32916992 126.05140625 539.10487305 126.60183594 538.8737793 127.16894531 C537.14252703 130.22680804 534.93108955 132.34919483 532.4284668 134.81347656 C531.93926758 135.29623047 531.45006836 135.77898437 530.94604492 136.27636719 C527.47911991 139.67078135 523.91201857 142.92593269 520.2097168 146.06347656 C518.51227034 147.47922822 518.51227034 147.47922822 517.0222168 149.18847656 C515.5534668 150.50097656 515.5534668 150.50097656 512.5534668 150.50097656 C512.32272461 151.08492187 512.09198242 151.66886719 511.85424805 152.27050781 C510.21665827 155.07850711 508.40354255 156.32896173 505.7409668 158.18847656 C504.7612793 158.878125 503.7815918 159.56777344 502.7722168 160.27832031 C501.7100293 161.01179687 500.6478418 161.74527344 499.5534668 162.50097656 C498.4177057 163.2934519 497.28229373 164.08642784 496.1472168 164.87988281 C483.96763604 173.36910075 471.80764997 181.0258555 458.46704102 187.55810547 C456.49126851 188.53162339 454.52350763 189.51986639 452.55737305 190.51269531 C440.78828828 196.45456156 429.06412773 202.26705136 416.5534668 206.50097656 C415.80532715 206.75492188 415.0571875 207.00886719 414.28637695 207.27050781 C408.0532469 209.38155437 401.80772917 211.45343605 395.5534668 213.50097656 C394.43536621 213.86739258 394.43536621 213.86739258 393.29467773 214.24121094 C361.79513943 224.50097656 361.79513943 224.50097656 348.5534668 224.50097656 C348.5534668 225.16097656 348.5534668 225.82097656 348.5534668 226.50097656 C349.46986938 226.57445312 349.46986938 226.57445312 350.40478516 226.64941406 C357.23547612 227.25606362 363.76557072 228.49112853 370.43823242 230.04003906 C385.40244968 233.2612521 401.07727732 232.66234155 416.30004883 232.63134766 C419.41712329 232.62599604 422.53405296 232.63132294 425.65112305 232.63769531 C445.0091924 232.64804102 463.63161687 231.64193656 482.7409668 228.50097656 C485.31252485 228.08793717 487.88451257 227.67767402 490.45661926 227.26806641 C492.03426333 227.01582398 493.61151986 226.76113914 495.1882782 226.50341797 C499.96676255 225.72689125 504.7464474 225.07628564 509.5534668 224.50097656 C507.74070299 234.59647144 505.34039989 244.20531889 502.0534668 253.93847656 C501.84092255 254.57396423 501.6283783 255.2094519 501.40939331 255.86419678 C491.31244974 285.9067075 491.31244974 285.9067075 482.5534668 297.50097656 C481.89789054 298.72333624 481.27476135 299.96368823 480.6862793 301.21972656 C478.52595429 305.6513733 476.03710056 309.82096994 473.4284668 314.00097656 C472.98631836 314.72800781 472.54416992 315.45503906 472.08862305 316.20410156 C470.96722993 318.00646149 469.76680262 319.75918438 468.5534668 321.50097656 C467.8934668 321.50097656 467.2334668 321.50097656 466.5534668 321.50097656 C466.32014648 322.20609375 466.08682617 322.91121094 465.84643555 323.63769531 C464.30159237 327.05875287 462.30560209 329.46287668 459.8659668 332.31347656 C459.4124585 332.84481201 458.9589502 333.37614746 458.49169922 333.92358398 C457.18349012 335.45327161 455.86865385 336.97728424 454.5534668 338.50097656 C453.9965918 339.17128906 453.4397168 339.84160156 452.8659668 340.53222656 C443.72736484 351.38431638 433.49411083 361.25304977 422.06518555 369.64550781 C419.54231927 371.41305745 419.54231927 371.41305745 417.5534668 373.50097656 C416.5634668 373.50097656 415.5734668 373.50097656 414.5534668 373.50097656 C414.2234668 374.49097656 413.8934668 375.48097656 413.5534668 376.50097656 C406.80318222 381.64464359 399.02682114 385.52165802 391.5534668 389.50097656 C390.36257803 390.1584115 389.17251586 390.81734529 387.9831543 391.47753906 C380.03547642 395.85674563 372.10561189 399.4190332 363.5534668 402.50097656 C362.27218481 402.99623685 360.99228734 403.49509033 359.71362305 403.99707031 C351.88945752 407.04859017 344.10087388 409.58958561 335.95581055 411.64160156 C333.71298478 412.20810176 331.48082445 412.81891737 329.26293945 413.47631836 C323.89711259 414.95850708 318.46475942 415.82473661 312.97705078 416.7331543 C311.01880098 417.05884723 309.06247538 417.39604195 307.10620117 417.73339844 C298.57855016 419.15826087 290.18474097 420.04520247 281.5534668 420.50097656 C281.18560059 421.35212036 281.18560059 421.35212036 280.81030273 422.22045898 C276.79633648 431.46302745 272.3484579 440.40406691 267.0612793 448.98535156 C265.42405554 451.7168855 263.92427906 454.5022515 262.4284668 457.31347656 C260.41993329 461.04211187 258.30968713 464.26954583 255.5534668 467.50097656 C254.53995016 469.15945834 253.54225885 470.82763617 252.5534668 472.50097656 C251.54328551 474.09112716 250.52152151 475.67395338 249.4909668 477.25097656 C248.98436523 478.02957031 248.47776367 478.80816406 247.95581055 479.61035156 C246.5534668 481.50097656 246.5534668 481.50097656 244.5534668 482.50097656 C243.9347168 483.55091797 243.9347168 483.55091797 243.3034668 484.62207031 C241.07720822 488.28446445 238.37507601 491.34997718 235.5534668 494.56347656 C234.4898352 495.78254225 233.42730298 497.00256818 232.3659668 498.22363281 C231.87225586 498.78969238 231.37854492 499.35575195 230.86987305 499.93896484 C229.78795288 501.22274178 228.78363661 502.57152166 227.8034668 503.93457031 C227.1847168 504.70994141 227.1847168 504.70994141 226.5534668 505.50097656 C225.8934668 505.50097656 225.2334668 505.50097656 224.5534668 505.50097656 C224.5534668 506.16097656 224.5534668 506.82097656 224.5534668 507.50097656 C223.8934668 507.50097656 223.2334668 507.50097656 222.5534668 507.50097656 C222.3472168 508.03722656 222.1409668 508.57347656 221.9284668 509.12597656 C220.02096254 512.42075665 217.50527296 515.09461285 214.5534668 517.50097656 C213.8934668 517.50097656 213.2334668 517.50097656 212.5534668 517.50097656 C212.32788086 518.07332031 212.10229492 518.64566406 211.86987305 519.23535156 C210.18029323 522.14323375 208.13749491 523.68139902 205.4909668 525.75097656 C200.97389006 529.33614654 196.65814484 533.05105426 192.4284668 536.96972656 C190.5534668 538.50097656 190.5534668 538.50097656 187.5534668 539.50097656 C186.9965918 540.05785156 186.4397168 540.61472656 185.8659668 541.18847656 C181.31693709 545.73750627 176.06463979 549.22451701 170.5534668 552.50097656 C168.86451941 553.60292802 167.17708451 554.70720023 165.4909668 555.81347656 C160.61078872 558.93942847 155.61291491 561.56560344 150.37768555 564.04394531 C147.50479234 565.45123106 147.50479234 565.45123106 144.85424805 567.35644531 C127.69376666 578.50568115 106.99148641 584.56820677 87.5534668 590.50097656 C86.76069336 590.74428711 85.96791992 590.98759766 85.15112305 591.23828125 C65.08395588 597.23300517 42.61455858 600.56548485 21.7175293 600.77441406 C20.00731094 600.79320618 20.00731094 600.79320618 18.26254272 600.81237793 C-7.08267054 601.03670418 -31.59792851 600.80925713 -56.4465332 595.50097656 C-58.12827637 595.1480957 -58.12827637 595.1480957 -59.84399414 594.78808594 C-73.00256525 591.94574062 -85.71452757 588.01255332 -98.31616211 583.29736328 C-100.23301788 582.580794 -102.15770196 581.88524989 -104.08325195 581.19238281 C-111.50970502 578.46009308 -118.50518057 575.10477954 -125.53295898 571.47753906 C-127.61836923 570.41328275 -129.71612057 569.37681915 -131.81762695 568.34472656 C-132.5468335 567.98548096 -133.27604004 567.62623535 -134.02734375 567.25610352 C-135.44814832 566.55681501 -136.87014602 565.85994424 -138.29345703 565.16577148 C-141.02970598 563.81083664 -143.27185089 562.67565888 -145.4465332 560.50097656 C-146.16454102 560.22640625 -146.88254883 559.95183594 -147.62231445 559.66894531 C-151.29122303 558.15165117 -154.36425177 556.04532433 -157.6340332 553.81347656 C-158.30257324 553.36069336 -158.97111328 552.90791016 -159.65991211 552.44140625 C-160.99343053 551.53653023 -162.32550258 550.62951843 -163.65600586 549.72021484 C-165.11339771 548.72782121 -166.58121889 547.75075709 -168.05200195 546.77832031 C-181.08634389 538.00649984 -193.12730223 527.36489703 -204.4465332 516.50097656 C-205.33187744 515.65647949 -205.33187744 515.65647949 -206.23510742 514.79492188 C-214.64404006 506.73049331 -222.20784677 498.41450444 -229.21313477 489.11035156 C-231.1376688 486.59916226 -233.16999941 484.18008777 -235.1965332 481.75097656 C-243.32286924 471.86056046 -250.91385753 461.06929843 -256.4465332 449.50097656 C-257.1699773 448.20609609 -257.89995281 446.914857 -258.6340332 445.62597656 C-261.02446515 441.35064208 -263.2514683 437.00371363 -265.4465332 432.62597656 C-265.7664624 431.99062988 -266.0863916 431.3552832 -266.41601562 430.70068359 C-267.44244599 428.64160992 -268.44881822 426.57412088 -269.4465332 424.50097656 C-270.04848511 423.2521167 -270.04848511 423.2521167 -270.66259766 421.97802734 C-273.85390694 415.17651499 -276.3391869 408.27444517 -278.6340332 401.12597656 C-279.31372844 399.03440966 -279.99467292 396.94324822 -280.67700195 394.85253906 C-280.96986084 393.9432666 -281.26271973 393.03399414 -281.56445312 392.09716797 C-282.16079645 390.34197424 -282.80749503 388.60321904 -283.49902344 386.88330078 C-284.77800931 383.66754604 -285.54649689 380.36485493 -286.3215332 377.00097656 C-286.57652588 375.90305786 -286.57652588 375.90305786 -286.83666992 374.78295898 C-288.19691053 368.81551226 -289.41451876 362.82337151 -290.5715332 356.81347656 C-290.80912354 355.58757812 -290.80912354 355.58757812 -291.05151367 354.33691406 C-293.32399786 342.26151013 -294.76578563 330.44386468 -294.8527832 318.14550781 C-294.86657432 316.8026214 -294.88047277 315.45973608 -294.89447021 314.11685181 C-294.93252125 309.84904867 -294.94178655 305.58142774 -294.9465332 301.31347656 C-294.94918434 300.2260359 -294.94918434 300.2260359 -294.95188904 299.11662674 C-295.00109754 276.38807681 -293.99910557 254.6683535 -288.4465332 232.50097656 C-288.10468559 231.0897077 -287.76365563 229.67824059 -287.42333984 228.26660156 C-287.07387305 226.83279426 -286.7235481 225.39919582 -286.37231445 223.96582031 C-286.21148376 223.30738632 -286.05065308 222.64895233 -285.88494873 221.9705658 C-284.6867521 217.18181012 -283.14378353 212.60486114 -281.3762207 208.00097656 C-280.46972035 205.56332854 -279.72224756 203.12623365 -279.0090332 200.62597656 C-277.19923031 194.43920473 -274.85348541 188.47659608 -272.4465332 182.50097656 C-272.15133789 181.76492187 -271.85614258 181.02886719 -271.55200195 180.27050781 C-268.37799925 172.77754252 -264.37046179 165.65663205 -260.51879883 158.49707031 C-259.59797299 156.7828918 -258.68548813 155.06423726 -257.7746582 153.34472656 C-252.68713951 143.82614319 -246.88270213 134.91337414 -240.46606445 126.23925781 C-239.15291391 124.45875775 -237.85751013 122.66498365 -236.58325195 120.85644531 C-231.40034653 113.52740927 -225.65727054 106.79043933 -219.75976562 100.0378418 C-218.56805286 98.64319003 -217.42782916 97.20494837 -216.29418945 95.76269531 C-214.66906247 93.77337496 -213.13784974 92.2714438 -211.1340332 90.68847656 C-208.59301106 88.57985525 -206.47615769 86.42773446 -204.3840332 83.87597656 C-197.4754954 75.74828503 -188.63417854 68.9037137 -180.02856445 62.65332031 C-178.67587223 61.66802597 -177.36826494 60.62133666 -176.0715332 59.56347656 C-164.42066047 50.40921941 -151.5277798 42.44659202 -138.4465332 35.50097656 C-137.14686048 34.79430118 -135.8474034 34.08722912 -134.5480957 33.37988281 C-126.33839304 28.93846229 -118.15102915 24.89976815 -109.4465332 21.50097656 C-108.20612589 20.99387282 -106.96658767 20.48463965 -105.7277832 19.97363281 C-98.72587422 17.09830412 -91.75099475 14.50691746 -84.4465332 12.50097656 C-83.14277406 12.11943882 -81.83942518 11.73649776 -80.53637695 11.35253906 C-72.58832957 9.03961993 -64.62605324 7.0066064 -56.5090332 5.37597656 C-55.78474121 5.22974854 -55.06044922 5.08352051 -54.31420898 4.93286133 C-52.7040929 4.62098576 -51.09079501 4.32533909 -49.47558594 4.04101562 C-47.21137151 3.63733687 -44.9538999 3.1955038 -42.70068359 2.734375 C-28.5533147 0.00850189 -14.35600918 -0.0276895 0 0 Z M-50.4465332 230.50097656 C-51.04594727 230.94054687 -51.64536133 231.38011719 -52.26293945 231.83300781 C-69.01715988 244.91267337 -80.53127269 267.12167942 -83.1652832 287.96582031 C-84.97364641 310.69594119 -81.30551542 331.29915406 -68.4465332 350.50097656 C-67.97860352 351.21511719 -67.51067383 351.92925781 -67.02856445 352.66503906 C-65.90137016 354.32442773 -64.6828632 355.92122157 -63.4465332 357.50097656 C-62.7865332 357.50097656 -62.1265332 357.50097656 -61.4465332 357.50097656 C-61.23641602 358.04625 -61.02629883 358.59152344 -60.80981445 359.15332031 C-58.94700028 362.36120375 -56.36751151 364.61425356 -53.6340332 367.06347656 C-53.11260742 367.54494141 -52.59118164 368.02640625 -52.05395508 368.52246094 C-46.94323504 373.49316532 -46.94323504 373.49316532 -40.4465332 375.50097656 C-40.4465332 376.16097656 -40.4465332 376.82097656 -40.4465332 377.50097656 C-19.83367569 388.89867425 5.91798288 393.39682911 28.92553711 386.82324219 C43.22284611 382.17647045 56.68100042 375.00960056 67.5534668 364.50097656 C67.5534668 363.84097656 67.5534668 363.18097656 67.5534668 362.50097656 C68.10260742 362.31148437 68.65174805 362.12199219 69.2175293 361.92675781 C72.61215692 359.8547861 74.63858926 356.86375236 76.9284668 353.68847656 C77.41452393 353.01848633 77.90058105 352.34849609 78.40136719 351.65820312 C82.67104124 345.61514782 85.79795655 339.3674584 88.5534668 332.50097656 C89.13547852 331.29054688 89.13547852 331.29054688 89.72924805 330.05566406 C97.92460309 311.51926102 95.82620226 286.51894141 88.9675293 267.86816406 C83.61520622 255.12312956 75.43467319 244.15238746 65.5534668 234.50097656 C64.5634668 234.17097656 63.5734668 233.84097656 62.5534668 233.50097656 C62.5534668 232.84097656 62.5534668 232.18097656 62.5534668 231.50097656 C55.44896029 225.17953189 47.27748849 221.09322079 38.5534668 217.50097656 C37.6253418 217.10910156 36.6972168 216.71722656 35.7409668 216.31347656 C6.6138919 204.79812137 -26.02876568 212.25690715 -50.4465332 230.50097656 Z " fill="#FAFAFA" transform="translate(294.446533203125,-0.5009765625)"/>
</svg>
